<svg xmlns="http://www.w3.org/2000/svg" viewBox="0 0 249.55 139.06"><defs><style>.cls-1{fill:#000200;}.cls-1,.cls-2{fill-rule:evenodd;}.cls-2{fill:#fff;}</style></defs><g id="Layer_2" data-name="Layer 2"><g id="Layer_1-2" data-name="Layer 1"><path class="cls-1" d="M76.82,137.25A57.15,57.15,0,0,0,88,136a22.48,22.48,0,0,0,7.59-3.36,13.28,13.28,0,0,0,5.1-6.54,30.79,30.79,0,0,0,1.3-8.31l33.31-6.1c8.53,14.28,23.35,23.74,40.19,23.74,26.45,0,47.89-23.28,47.89-52s-21.44-52-47.89-52c-20.16,0-37.41,13.54-44.47,32.7L102.06,57.2V54.77c0-5.88-.54-10.2-1.65-12.93a13.46,13.46,0,0,0-6.27-6.73q-5.92-3.27-17.32-3.69l-.46-4.65h66.12c14.65,0,24,.11,28,.33,16.91.84,31.73,4.56,43.5,10.14,11.21,5.28,19.95,14.56,26.23,23.11a46.73,46.73,0,0,1,9.35,28,43,43,0,0,1-5.33,20.9,46.78,46.78,0,0,1-14.85,16.3q-13.37,9.15-33.29,11.64a246.39,246.39,0,0,1-30.42,1.84H76.82Z"/><path class="cls-2" d="M205.43,83.86c5.48,2.18,13.88-5.89,19.36,10,11.25-2,12.21-21.77-2.42-27.09l-.16-4.92c-5.87-8.46-17.14-12.69-24.27-14Z"/><path class="cls-1" d="M191.87,118.77c-.13-.06,2,2.55,1.69,1.85C146.07,50,74.61,85,9.76,0,27.44,67.15,67,84.61,103.7,92.68,73.39,87.59,36.1,78.8,0,47.82c22.22,42.51,45.77,54.27,68.69,58.83-30.42,2-46.88-2.26-55-9.67,26.86,59.93,100.8-9.47,159.88,14.2a90.26,90.26,0,0,1,20.19,10.62c1,.52-2.26-3-1.9-3Zm-15.5-7.63c-6.8-4.37-7.8-8.35-19.76-12.64,14.53,3.35,12.73,4.84,19.76,12.64Z"/><path class="cls-1" d="M199.06,126.73c-17.69-38,21.37-60.67,27-35.63,7.51-2.4,8.23-16-5.6-22.81V62.82c-20.37-20.93-62.27-14.1-73.91,14.73,12.83,6.21,30.08,12.46,52.49,49.18Z"/><path class="cls-1" d="M165.48,106a7.93,7.93,0,0,1,6.69,3.62,5.76,5.76,0,1,0-4.12,9.75,5.89,5.89,0,0,0,4.58-2.18,8,8,0,0,1-7.15,4.41,7.8,7.8,0,1,1,0-15.6Z"/><path class="cls-2" d="M179,97.25a8,8,0,0,1-6.7-3.62,5.85,5.85,0,0,0,4.12,1.69,5.73,5.73,0,1,0,0-11.45,5.86,5.86,0,0,0-4.57,2.19,8,8,0,0,1,15.08,3.39,7.86,7.86,0,0,1-7.93,7.8Z"/><path class="cls-2" d="M175.91,94.68a3.28,3.28,0,0,1-3.24-.48,2.47,2.47,0,0,0,1.93.07,2.8,2.8,0,0,0,1.75-3.3,2.32,2.32,0,0,0-3.12-1.5,2.9,2.9,0,0,0-1.66,1.63,3.93,3.93,0,0,1,2.47-3,3.17,3.17,0,0,1,4.26,2,3.82,3.82,0,0,1-2.39,4.51Z"/><path class="cls-1" d="M165.84,109a3.17,3.17,0,0,1,3.17-.23,2.41,2.41,0,0,0-1.85.35,2.84,2.84,0,0,0-1.13,3.52,2.17,2.17,0,0,0,3.22.76,2.94,2.94,0,0,0,1.31-1.9,4.06,4.06,0,0,1-1.87,3.35,3,3,0,0,1-4.39-1,3.89,3.89,0,0,1,1.54-4.82Z"/></g></g></svg>